Coordinates
version=1
nRows=22
nColumns=24
inDegrees=yes

Units are S.I. units (second, meters, Newtons, ...)
Angles are in degrees.

endheader
time	pelvis_tilt	pelvis_list	pelvis_rotation	pelvis_tx	pelvis_ty	pelvis_tz	hip_flexion_r	hip_adduction_r	hip_rotation_r	knee_angle_r	ankle_angle_r	subtalar_angle_r	mtp_angle_r	hip_flexion_l	hip_adduction_l	hip_rotation_l	knee_angle_l	ankle_angle_l	subtalar_angle_l	mtp_angle_l	lumbar_extension	lumbar_bending	lumbar_rotation
      4.09000000	     -6.39074148	     -3.29480659	    -11.39672725	      1.09539283	      0.66367346	     -0.13070348	    -10.60957869	      5.33642944	      5.18017179	    -27.66137752	    -11.88416662	     -3.07183355	      0.00000000	     25.87646119	     -5.37341842	     -8.00764214	     -4.23597890	      1.39133927	     -9.20114142	      0.00000000	    -13.43535124	     -6.45320977	     27.59634666
      4.10000000	     -6.01444108	     -1.69311802	    -10.56611171	      1.11780788	      0.66356137	     -0.13080001	     -7.88724336	      3.89679660	      3.64803981	    -34.25755627	    -16.22166556	     -8.81504953	      0.00000000	     24.84143092	     -3.01211623	     -6.56246505	     -5.75946950	     -0.16439972	    -10.86917982	      0.00000000	    -13.53761168	     -8.31675253	     25.56183324
      4.11000000	     -5.93585972	      0.35138945	     -9.57676340	      1.13945650	      0.66318135	     -0.13092418	     -4.50476020	      2.00975197	      2.15113349	    -40.88666913	    -19.73870030	    -15.59437516	      0.00000000	     24.38403720	     -0.30900601	     -5.13899927	     -7.62679477	     -1.10951196	    -11.92642753	      0.00000000	    -13.54545970	    -10.63555651	     23.12846048
      4.12000000	     -5.76917805	      2.61914416	     -8.37157231	      1.16052116	      0.66300470	     -0.13110334	     -1.10854290	     -0.15921828	      0.92812545	    -47.10468571	    -22.53130406	    -23.09781266	      0.00000000	     23.84216429	      2.66616649	     -3.40363028	     -9.54456061	     -1.20305423	    -12.67815545	      0.00000000	    -13.98755019	    -13.23509221	     20.41928267
      4.13000000	     -5.71017131	      4.83950431	     -7.10930137	      1.18101077	      0.66298503	     -0.13118468	      2.46794340	     -2.25260350	      0.30641107	    -52.75171314	    -24.07799768	    -30.13835974	      0.00000000	     23.34997867	      5.51802176	     -2.18229278	    -11.52603047	     -0.28583476	    -12.68938488	      0.00000000	    -14.64047027	    -15.76891396	     17.55555429
      4.14000000	     -5.62959975	      6.75666110	     -5.93846168	      1.20114435	      0.66338068	     -0.13104993	      6.03803555	     -3.93046192	      0.48041239	    -57.58325647	    -24.07280991	    -35.58811098	      0.00000000	     22.43081602	      7.99077845	     -1.25315148	    -13.04230601	      1.56014689	    -12.10697198	      0.00000000	    -15.56414248	    -17.96490586	     14.71457214
      4.15000000	     -5.52650651	      8.25782605	     -4.91643467	      1.22109694	      0.66426001	     -0.13075698	      9.60091344	     -5.05520550	      1.31119151	    -61.46421519	    -21.98059500	    -38.42530203	      0.00000000	     20.83208868	     10.00617390	     -0.18040322	    -13.59155854	      3.44727590	    -11.78509621	      0.00000000	    -16.63768356	    -19.66489955	     12.03788050
      4.16000000	     -5.74472539	      9.27679600	     -4.15338847	      1.24093597	      0.66524025	     -0.13019448	     13.52094526	     -5.43340543	      2.83337694	    -64.36569450	    -18.55837252	    -39.17572471	      0.00000000	     19.01763665	     11.33432902	      0.45111662	    -13.29699623	      5.62067932	    -10.76320883	      0.00000000	    -17.23975394	    -20.81378771	      9.84648755
      4.17000000	     -5.82360239	      9.81688606	     -3.56771399	      1.26101547	      0.66667456	     -0.12959562	     17.14668324	     -5.20719623	      4.62668098	    -66.17054502	    -14.05330106	    -37.80782662	      0.00000000	     16.31485768	     12.14180144	      1.49710891	    -11.78866964	      7.28646005	    -10.17310720	      0.00000000	    -17.86010025	    -21.38852676	      7.87515337
      4.18000000	     -5.98520645	      9.87180534	     -3.10994591	      1.28140744	      0.66815681	     -0.12903848	     20.63123510	     -4.41917337	      6.47305951	    -66.92425210	     -9.40661915	    -35.39287923	      0.00000000	     13.14279001	     12.35170701	      2.77082796	     -9.37084924	      8.51021621	     -9.72648687	      0.00000000	    -18.14565876	    -21.37237563	      6.21953858
      4.19000000	     -6.19143732	      9.49419447	     -2.65339485	      1.30216465	      0.66951121	     -0.12865393	     23.84069153	     -3.26219543	      8.10584348	    -66.64726681	     -5.33211349	    -33.03941664	      0.00000000	      9.64236726	     12.01176855	      4.25760424	     -6.35053980	      9.28691520	     -9.30137608	      0.00000000	    -18.16756727	    -20.79460157	      4.71208265
      4.20000000	     -6.45762534	      8.59758344	     -1.98078849	      1.32322595	      0.67060386	     -0.12857495	     26.69693727	     -1.81717142	      9.22308011	    -65.29868253	     -2.40148790	    -31.82912360	      0.00000000	      6.06054343	     11.02217181	      5.93859019	     -3.14073086	      9.72064167	     -8.75115350	      0.00000000	    -18.00512925	    -19.50897242	      3.10994384
      4.21000000	     -6.84457220	      7.40652970	     -1.26007354	      1.34450358	      0.67109929	     -0.12867447	     29.36901311	     -0.31482085	     10.06119760	    -63.04952988	     -0.13162873	    -31.36607369	      0.00000000	      2.59251031	      9.58593767	      7.95983946	      0.14314282	      9.79721244	     -8.94915505	      0.00000000	    -17.53072467	    -17.84114757	      1.70335341
      4.22000000	     -7.32791685	      5.99631051	     -0.10482904	      1.36579677	      0.67104181	     -0.12921557	     31.77577533	      0.90733205	     10.33125318	    -59.82546181	      0.89700323	    -32.36138244	      0.00000000	     -0.54196864	      7.80115355	     10.29110155	      3.10207481	      9.48263726	     -9.49486268	      0.00000000	    -16.99817271	    -15.78721572	     -0.19063509
      4.23000000	     -7.69086281	      4.63668716	      1.31045585	      1.38703330	      0.67059530	     -0.13010658	     33.74868760	      1.57800891	     10.28956062	    -55.73693861	      1.74280525	    -33.41609294	      0.00000000	     -3.29423963	      6.02885424	     11.85353051	      5.28824387	      9.57742395	     -8.94865496	      0.00000000	    -16.65748293	    -13.70683575	     -2.42765704
      4.24000000	     -8.15934011	      3.41803860	      2.94073368	      1.40811858	      0.66946797	     -0.13127990	     35.48938787	      1.65884562	     10.11993980	    -50.78170174	      2.13224760	    -34.59182484	      0.00000000	     -5.62319608	      4.33766268	     13.91049180	      7.07921373	      9.31414396	     -9.57617541	      0.00000000	    -16.21724492	    -11.74937530	     -4.84631921
      4.25000000	     -8.38827860	      2.54730767	      4.71332168	      1.42910679	      0.66811877	     -0.13273696	     36.55275701	      0.99400496	      9.90834015	    -44.97350165	      2.67521286	    -34.94883642	      0.00000000	     -7.72619388	      3.06729190	     15.17075683	      8.07702244	      9.45475037	     -9.21039467	      0.00000000	    -16.14986325	    -10.12906130	     -7.50555123
      4.26000000	     -8.54197277	      2.03876250	      6.50683483	      1.45011239	      0.66636851	     -0.13433231	     37.02139241	     -0.26804519	      9.78950530	    -38.31833112	      3.06237040	    -34.72482972	      0.00000000	     -9.62042688	      2.20802936	     16.20399322	      8.53329445	      9.70345570	     -9.00777955	      0.00000000	    -16.21783897	     -8.90039875	    -10.18719063
      4.27000000	     -8.54567045	      1.91614319	      8.21543260	      1.47139518	      0.66429257	     -0.13596222	     36.79708666	     -2.00764715	      9.70144898	    -30.99586219	      3.17472707	    -33.58115762	      0.00000000	    -11.55128106	      1.74440782	     16.96765917	      8.64568671	      9.88060899	     -8.66622179	      0.00000000	    -16.46547545	     -8.09424721	    -12.76065747
      4.28000000	     -8.05912561	      1.97021218	      9.67776333	      1.49334416	      0.66220156	     -0.13748504	     35.59485073	     -3.81872421	      9.24958447	    -23.31342364	      3.76087120	    -30.89954127	      0.00000000	    -13.92019581	      1.41432391	     17.10257263	      8.43459216	     10.01257654	     -8.26287243	      0.00000000	    -17.18399977	     -7.40969890	    -14.95941671
      4.29000000	     -7.53630926	      2.32447416	     10.87840759	      1.51599145	      0.65973852	     -0.13882897	     34.20709589	     -5.72562443	      7.97038232	    -16.08558110	      5.03756419	    -25.93150838	      0.00000000	    -16.28825595	      1.35847031	     16.78614714	      7.91152688	     10.13917726	     -7.06387597	      0.00000000	    -17.80551512	     -7.09852284	    -16.78043537
      4.30000000	     -6.99437245	      2.68173851	     11.86196679	      1.53936553	      0.65708389	     -0.13989583	     32.81879218	     -7.28932412	      5.47747525	     -9.86641838	      6.55050050	    -19.59716148	      0.00000000	    -18.45715497	      1.27853716	     16.06354355	      6.84657852	     10.46375674	     -5.46448184	      0.00000000	    -18.23398395	     -6.83724542	    -18.33593497
